<?xml version="1.0" encoding="utf-8"?>
<!-- Generator: Adobe Illustrator 21.1.0, SVG Export Plug-In . SVG Version: 6.00 Build 0)  -->
<svg version="1.1" id="Layer_1" xmlns="http://www.w3.org/2000/svg" xmlns:xlink="http://www.w3.org/1999/xlink" x="0px" y="0px"
	 viewBox="0 0 1728 1728" style="enable-background:new 0 0 1728 1728;" xml:space="preserve">
<style type="text/css">
	.st0{fill:#DAEEDF;}
	.st1{fill:none;stroke:#797A7D;stroke-miterlimit:10;}
	.st2{fill:none;stroke:#000000;stroke-miterlimit:10;}
</style>
<g>
	<path class="st0" d="M786,347.2l28.3-11.7l0,0c43.2-27.8,54.2-121.6-6.3-182C747.6,93,653.8,104,626,147.2l0,0l0,0l-11.7,28.3
		c2.1-61.5-54.7-117.3-121.4-117.3h0c-66.7,0-123.5,55.8-121.4,117.3l-11.7-28.3l0,0v0c-27.8-43.2-121.6-54.2-182,6.3
		s-49.5,154.2-6.3,182l28.3,11.7C138.3,345.1,82.5,402,82.5,468.6v0c0,66.7,55.8,123.5,117.3,121.4l-28.3,11.7l0,0h0
		c-43.2,27.8-54.2,121.6,6.3,182s154.2,49.5,182,6.3l0,0l0,0l11.7-28.3C369.4,823.2,426.2,879,492.9,879h0
		c66.7,0,123.5-55.8,121.4-117.3l11.7,28.3l0,0l0,0c27.8,43.2,121.6,54.2,182-6.3c60.4-60.4,49.5-154.2,6.3-182c0,0,0,0,0,0l0,0
		L786,590c61.5,2.1,117.3-54.7,117.3-121.4v0C903.3,402,847.4,345.1,786,347.2z M216.5,475.8c-4,0-7.2-3.2-7.2-7.2s3.2-7.2,7.2-7.2
		c4,0,7.2,3.2,7.2,7.2S220.5,475.8,216.5,475.8z M769.2,475.8c-4,0-7.2-3.2-7.2-7.2s3.2-7.2,7.2-7.2c4,0,7.2,3.2,7.2,7.2
		S773.2,475.8,769.2,475.8z"/>
	<path class="st1" d="M617.8,152.8l-3.6,22.8l-61.8,149.1 M636.9,409L786,347.2l22.6-3.9 M808.7,593.6L786,590l-149.1-61.8
		 M552.5,612.6l61.8,149.1l3.9,22.6 M367.9,784.5l3.6-22.8l61.8-149.1 M348.9,528.3L199.8,590l-22.6,3.9 M348.9,409l-149.1-61.8
		l-22.8-3.6 M367.5,152.9l3.9,22.6l61.8,149.1"/>
	<path class="st2" d="M808,783.8L636.9,528.3V409L808,153.5 M808,783.8L552.5,612.6H433.2L177.7,783.8 M177.7,783.8l171.2-255.5V409
		L177.7,153.5 M177.7,153.5l255.5,171.2h119.3L808,153.5 M903.3,468.6l-266.4,59.6l-84.4,84.4L492.9,879 M492.9,879l-59.6-266.4
		l-84.4-84.4L82.5,468.6 M903.3,468.6L636.9,409l-84.4-84.4L492.9,58.2l-59.6,266.4L348.9,409L82.5,468.6"/>
</g>
</svg>
